<svg xmlns="http://www.w3.org/2000/svg" width="149" height="149" viewBox="0 0 149 149">
  <path id="Icon_awesome-user-circle" data-name="Icon awesome-user-circle" d="M74.5.562a74.5,74.5,0,1,0,74.5,74.5A74.487,74.487,0,0,0,74.5.562Zm0,28.839A26.435,26.435,0,1,1,48.065,55.837,26.436,26.436,0,0,1,74.5,29.4Zm0,103.339a57.565,57.565,0,0,1-44.009-20.488,33.493,33.493,0,0,1,29.59-17.964,7.351,7.351,0,0,1,2.133.33A39.774,39.774,0,0,0,74.5,96.692a39.623,39.623,0,0,0,12.286-2.073,7.35,7.35,0,0,1,2.133-.33,33.493,33.493,0,0,1,29.59,17.964A57.565,57.565,0,0,1,74.5,132.74Z" transform="translate(0 -0.563)" fill="#fff"/>
</svg>
