<svg xmlns="http://www.w3.org/2000/svg" xmlns:xlink="http://www.w3.org/1999/xlink" width="141" height="151" viewBox="0 0 141 151">
  <defs>
    <filter id="Ellipse_16" x="6" y="0" width="128" height="128" filterUnits="userSpaceOnUse">
      <feOffset dy="3" input="SourceAlpha"/>
      <feGaussianBlur stdDeviation="2" result="blur"/>
      <feFlood flood-opacity="0.161"/>
      <feComposite operator="in" in2="blur"/>
      <feComposite in="SourceGraphic"/>
    </filter>
  </defs>
  <g id="Group_29" data-name="Group 29" transform="translate(487 10)">
    <g transform="matrix(1, 0, 0, 1, -487, -10)" filter="url(#Ellipse_16)">
      <circle id="Ellipse_16-2" data-name="Ellipse 16" cx="58" cy="58" r="58" transform="translate(12 3)" fill="#fff"/>
    </g>
    <path id="Icon_map-health" data-name="Icon map-health" d="M45.189,15.543a.929.929,0,0,0-.926-.926H32.219a.929.929,0,0,1-.926-.926V1.646A.929.929,0,0,0,30.366.72H15.543a.929.929,0,0,0-.926.926V13.69a.929.929,0,0,1-.926.926H1.646a.929.929,0,0,0-.926.926V30.366a.929.929,0,0,0,.926.926H13.69a.929.929,0,0,1,.926.926V44.262a.929.929,0,0,0,.926.926H30.366a.929.929,0,0,0,.926-.926V32.219a.929.929,0,0,1,.926-.926H44.262a.929.929,0,0,0,.926-.926Z" transform="translate(-440.158 26.559)" fill="#2d55db"/>
    <text id="Keeping_Improving_for_Surgery" data-name="Keeping Improving for Surgery" transform="translate(-487 125)" fill="#2d55db" font-size="10" font-family="MalgunGothic, Malgun Gothic"><tspan x="0" y="11">Keeping Improving for Surgery</tspan></text>
    <path id="Icon_ionic-ios-sad" data-name="Icon ionic-ios-sad" d="M12.922,3.375a9.547,9.547,0,1,0,9.547,9.547A9.545,9.545,0,0,0,12.922,3.375ZM9.53,10.356a1.1,1.1,0,1,1-1.01,1.01A1.1,1.1,0,0,1,9.53,10.356ZM9.5,17.328A.736.736,0,0,1,8.823,16.3a4.468,4.468,0,0,1,8.2,0,.734.734,0,0,1-.675,1.028,33.077,33.077,0,0,0-3.355-.184C11.224,17.144,9.5,17.328,9.5,17.328Zm6.816-4.778a1.1,1.1,0,1,1,1.01-1.01A1.1,1.1,0,0,1,16.314,12.55Z" transform="translate(-420.532 59.897)" fill="#2d55db" stroke="#fff" stroke-width="1"/>
  </g>
</svg>
