<svg xmlns="http://www.w3.org/2000/svg" xmlns:xlink="http://www.w3.org/1999/xlink" width="128" height="148" viewBox="0 0 128 148">
  <defs>
    <filter id="Ellipse_17" x="0" y="0" width="128" height="128" filterUnits="userSpaceOnUse">
      <feOffset dy="3" input="SourceAlpha"/>
      <feGaussianBlur stdDeviation="2" result="blur"/>
      <feFlood flood-opacity="0.161"/>
      <feComposite operator="in" in2="blur"/>
      <feComposite in="SourceGraphic"/>
    </filter>
  </defs>
  <g id="Group_30" data-name="Group 30" transform="translate(683 10)">
    <g transform="matrix(1, 0, 0, 1, -683, -10)" filter="url(#Ellipse_17)">
      <circle id="Ellipse_17-2" data-name="Ellipse 17" cx="58" cy="58" r="58" transform="translate(6 3)" fill="#fff"/>
    </g>
    <path id="Icon_map-health" data-name="Icon map-health" d="M43.877,15.106a.9.9,0,0,0-.9-.9H31.29a.9.9,0,0,1-.9-.9V1.619a.9.9,0,0,0-.9-.9H15.106a.9.9,0,0,0-.9.9V13.307a.9.9,0,0,1-.9.9H1.619a.9.9,0,0,0-.9.9V29.491a.9.9,0,0,0,.9.9H13.307a.9.9,0,0,1,.9.9V42.978a.9.9,0,0,0,.9.9H29.491a.9.9,0,0,0,.9-.9V31.29a.9.9,0,0,1,.9-.9H42.978a.9.9,0,0,0,.9-.9Z" transform="translate(-641.788 26.908)" fill="#86b1b8"/>
    <text id="Try_as_Hard_as_You_Can" data-name="Try as Hard as You Can" transform="translate(-673 136)" fill="#86b1b8" font-size="10" font-family="MalgunGothic, Malgun Gothic"><tspan x="0" y="0">Try as Hard as You Can</tspan></text>
    <path id="Icon_awesome-sad-tear" data-name="Icon awesome-sad-tear" d="M9.265.563A9.265,9.265,0,1,0,18.53,9.828,9.264,9.264,0,0,0,9.265.563Zm2.989,6.276a1.2,1.2,0,1,1-1.2,1.2A1.194,1.194,0,0,1,12.254,6.839ZM5.679,15.805a1.774,1.774,0,0,1-1.793-1.756c0-.747,1.065-2.257,1.554-2.907a.3.3,0,0,1,.478,0c.489.65,1.554,2.159,1.554,2.907A1.774,1.774,0,0,1,5.679,15.805Zm.6-6.575a1.2,1.2,0,1,1,1.2-1.2A1.194,1.194,0,0,1,6.276,9.23Zm6.359,5.761a4.383,4.383,0,0,0-3.37-1.577.6.6,0,0,1,0-1.2,5.558,5.558,0,0,1,4.285,2.01A.6.6,0,0,1,12.635,14.991Z" transform="translate(-620.276 62.006)" fill="#86b1b8" stroke="#fff" stroke-width="1"/>
  </g>
</svg>
