<svg xmlns="http://www.w3.org/2000/svg" xmlns:xlink="http://www.w3.org/1999/xlink" width="128" height="152" viewBox="0 0 128 152">
  <defs>
    <filter id="Ellipse_15" x="0" y="0" width="128" height="128" filterUnits="userSpaceOnUse">
      <feOffset dy="3" input="SourceAlpha"/>
      <feGaussianBlur stdDeviation="2" result="blur"/>
      <feFlood flood-opacity="0.161"/>
      <feComposite operator="in" in2="blur"/>
      <feComposite in="SourceGraphic"/>
    </filter>
  </defs>
  <g id="Group_28" data-name="Group 28" transform="translate(267 10)">
    <g transform="matrix(1, 0, 0, 1, -267, -10)" filter="url(#Ellipse_15)">
      <circle id="Ellipse_15-2" data-name="Ellipse 15" cx="58" cy="58" r="58" transform="translate(6 3)" fill="#fff"/>
    </g>
    <path id="Icon_map-health" data-name="Icon map-health" d="M45.11,15.517a.928.928,0,0,0-.925-.925H32.163a.928.928,0,0,1-.925-.925V1.645A.928.928,0,0,0,30.313.72h-14.8a.928.928,0,0,0-.925.925V13.667a.928.928,0,0,1-.925.925H1.645a.928.928,0,0,0-.925.925v14.8a.928.928,0,0,0,.925.925H13.667a.928.928,0,0,1,.925.925V44.185a.928.928,0,0,0,.925.925h14.8a.928.928,0,0,0,.925-.925V32.163a.928.928,0,0,1,.925-.925H44.185a.928.928,0,0,0,.925-.925Z" transform="translate(-226.96 26.499)" fill="#86b1b8"/>
    <path id="Icon_ionic-ios-happy" data-name="Icon ionic-ios-happy" d="M13.349,3.375a9.974,9.974,0,1,0,9.974,9.974A9.973,9.973,0,0,0,13.349,3.375ZM16.8,10.664a1.151,1.151,0,1,1-1.151,1.151A1.148,1.148,0,0,1,16.8,10.664Zm-6.905,0a1.151,1.151,0,1,1-1.151,1.151A1.148,1.148,0,0,1,9.9,10.664Zm3.453,8.1a4.708,4.708,0,0,1-4.517-3.39.385.385,0,0,1,.369-.494h8.291a.386.386,0,0,1,.369.494A4.7,4.7,0,0,1,13.349,18.768Z" transform="translate(-208.482 59.346)" fill="#86b1b8" stroke="#fafbfc" stroke-width="1"/>
    <text id="Getting_Ready_for_Surgery" data-name="Getting Ready for Surgery" transform="translate(-262 125)" fill="#86b1b8" font-size="10" font-family="MalgunGothic, Malgun Gothic"><tspan x="0" y="11">Getting Ready for Surgery</tspan></text>
  </g>
</svg>
