<svg xmlns="http://www.w3.org/2000/svg" xmlns:xlink="http://www.w3.org/1999/xlink" width="128" height="153" viewBox="0 0 128 153">
  <defs>
    <filter id="Ellipse_12" x="0" y="0" width="128" height="128" filterUnits="userSpaceOnUse">
      <feOffset dy="3" input="SourceAlpha"/>
      <feGaussianBlur stdDeviation="2" result="blur"/>
      <feFlood flood-opacity="0.161"/>
      <feComposite operator="in" in2="blur"/>
      <feComposite in="SourceGraphic"/>
    </filter>
  </defs>
  <g id="Group_27" data-name="Group 27" transform="translate(60 10)">
    <g transform="matrix(1, 0, 0, 1, -60, -10)" filter="url(#Ellipse_12)">
      <circle id="Ellipse_12-2" data-name="Ellipse 12" cx="58" cy="58" r="58" transform="translate(6 3)" fill="#fff"/>
    </g>
    <path id="Icon_ionic-md-trophy" data-name="Icon ionic-md-trophy" d="M44.12,10.5c.107-3.375.024-7,.012-7.126H11.82c0,.125-.095,3.75.012,7.126H3.375c0,8.5,1.173,12.789,2.487,15.839a21.885,21.885,0,0,0,6.953,8.789c3.565,2.913,11.311,6.7,12.354,7.2v3.538c-.545,1.25-2.783,3.525-9.866,3.525H12.851v6H43.172v-6H40.128c-7.19,0-8.883-2.388-9.274-3.525V42.33c1.1-.575,9.582-5.038,12.366-7.188a25.549,25.549,0,0,0,6.953-8.789A46.613,46.613,0,0,0,52.648,10.5ZM10.671,23.865a21.527,21.527,0,0,1-1.86-7.738h3.4c.083.75.166,1.413.272,2.038a57.817,57.817,0,0,0,3.044,12.064A17.788,17.788,0,0,1,10.671,23.865Zm34.68,0a17.9,17.9,0,0,1-4.927,6.413A57.008,57.008,0,0,0,43.48,18.164c.095-.625.19-1.288.272-2.038h3.47A21.526,21.526,0,0,1,45.352,23.865Z" transform="translate(-24.02 21.719)" fill="#86b1b8"/>
    <text id="Optimized_for_Surgery" data-name="Optimized for Surgery" transform="translate(-47 126)" fill="#86b1b8" font-size="10" font-family="MalgunGothic, Malgun Gothic"><tspan x="0" y="11">Optimized for Surgery</tspan></text>
    <path id="Icon_map-health" data-name="Icon map-health" d="M21.481,7.64a.434.434,0,0,0-.433-.433H15.426a.434.434,0,0,1-.433-.433V1.153A.434.434,0,0,0,14.561.72H7.64a.434.434,0,0,0-.433.433V6.775a.434.434,0,0,1-.433.433H1.153A.434.434,0,0,0,.72,7.64v6.92a.434.434,0,0,0,.433.433H6.775a.434.434,0,0,1,.433.433v5.623a.434.434,0,0,0,.433.433h6.92a.434.434,0,0,0,.433-.433V15.426a.434.434,0,0,1,.433-.433h5.623a.434.434,0,0,0,.433-.433Z" transform="translate(8.006 66.176)" fill="#86b1b8" stroke="#fff" stroke-width="1"/>
  </g>
</svg>
