<svg xmlns="http://www.w3.org/2000/svg" width="33.349" height="30.492" viewBox="0 0 33.349 30.492">
  <path id="Icon_metro-trophy" data-name="Icon metro-trophy" d="M27.635,7.855v-4H8.355v4H2.571v4a5.894,5.894,0,0,0,5.784,6,5.591,5.591,0,0,0,1.736-.275,9.63,9.63,0,0,0,5.976,4.074v6.2H14.139a3.929,3.929,0,0,0-3.856,4H25.707a3.929,3.929,0,0,0-3.856-4H19.923v-6.2A9.63,9.63,0,0,0,25.9,17.577a5.591,5.591,0,0,0,1.736.275,5.894,5.894,0,0,0,5.784-6v-4ZM8.355,15.478A3.565,3.565,0,0,1,4.86,11.854v-2H8.355v2a10.3,10.3,0,0,0,.631,3.564A3.378,3.378,0,0,1,8.355,15.478ZM31.13,11.854a3.565,3.565,0,0,1-3.495,3.624,3.378,3.378,0,0,1-.631-.06,10.3,10.3,0,0,0,.631-3.564v-2H31.13v2Z" transform="translate(-1.321 -2.606)" fill="#fff" stroke="#000" stroke-width="2.5" opacity="0.1"/>
</svg>
