<svg xmlns="http://www.w3.org/2000/svg" width="46.233" height="30.492" viewBox="0 0 46.233 30.492">
  <path id="Icon_awesome-dumbbell" data-name="Icon awesome-dumbbell" d="M7.107,6.249H3.827a1.571,1.571,0,0,0-1.64,1.5v6.5H.547a.526.526,0,0,0-.547.5v3a.526.526,0,0,0,.547.5h1.64v6.5a1.571,1.571,0,0,0,1.64,1.5h3.28a1.571,1.571,0,0,0,1.64-1.5v-17A1.571,1.571,0,0,0,7.107,6.249Zm36.08,8h-1.64v-6.5a1.571,1.571,0,0,0-1.64-1.5h-3.28a1.571,1.571,0,0,0-1.64,1.5v17a1.571,1.571,0,0,0,1.64,1.5h3.28a1.571,1.571,0,0,0,1.64-1.5v-6.5h1.64a.526.526,0,0,0,.547-.5v-3A.526.526,0,0,0,43.187,14.247ZM31.16,2.25H27.88a1.571,1.571,0,0,0-1.64,1.5v10.5H17.493V3.75a1.571,1.571,0,0,0-1.64-1.5h-3.28a1.571,1.571,0,0,0-1.64,1.5V28.743a1.571,1.571,0,0,0,1.64,1.5h3.28a1.571,1.571,0,0,0,1.64-1.5v-10.5H26.24v10.5a1.571,1.571,0,0,0,1.64,1.5h3.28a1.571,1.571,0,0,0,1.64-1.5V3.75A1.571,1.571,0,0,0,31.16,2.25Z" transform="translate(1.25 -1)" fill="none" stroke="#000" stroke-width="2.5" opacity="0.1"/>
</svg>
