<svg xmlns="http://www.w3.org/2000/svg" xmlns:xlink="http://www.w3.org/1999/xlink" width="128" height="150" viewBox="0 0 128 150">
  <defs>
    <filter id="Ellipse_14" x="0" y="0" width="128" height="128" filterUnits="userSpaceOnUse">
      <feOffset dy="3" input="SourceAlpha"/>
      <feGaussianBlur stdDeviation="2" result="blur"/>
      <feFlood flood-opacity="0.161"/>
      <feComposite operator="in" in2="blur"/>
      <feComposite in="SourceGraphic"/>
    </filter>
  </defs>
  <g id="Group_38" data-name="Group 38" transform="translate(683 -370)">
    <g transform="matrix(1, 0, 0, 1, -683, 370)" filter="url(#Ellipse_14)">
      <circle id="Ellipse_14-2" data-name="Ellipse 14" cx="58" cy="58" r="58" transform="translate(6 3)" fill="#fff"/>
    </g>
    <path id="Icon_awesome-dumbbell" data-name="Icon awesome-dumbbell" d="M9.069,7.831H4.883A2.088,2.088,0,0,0,2.79,9.924v9.069H.7a.7.7,0,0,0-.7.7v4.186a.7.7,0,0,0,.7.7H2.79v9.069a2.088,2.088,0,0,0,2.093,2.093H9.069a2.088,2.088,0,0,0,2.093-2.093V9.924A2.088,2.088,0,0,0,9.069,7.831ZM55.112,18.993H53.019V9.924a2.088,2.088,0,0,0-2.093-2.093H46.74a2.088,2.088,0,0,0-2.093,2.093V33.643a2.088,2.088,0,0,0,2.093,2.093h4.186a2.088,2.088,0,0,0,2.093-2.093V24.574h2.093a.7.7,0,0,0,.7-.7V19.69A.7.7,0,0,0,55.112,18.993ZM39.764,2.25H35.579a2.088,2.088,0,0,0-2.093,2.093v14.65H22.324V4.343A2.088,2.088,0,0,0,20.231,2.25H16.045a2.088,2.088,0,0,0-2.093,2.093V39.224a2.088,2.088,0,0,0,2.093,2.093h4.186a2.088,2.088,0,0,0,2.093-2.093V24.574H33.486v14.65a2.088,2.088,0,0,0,2.093,2.093h4.186a2.088,2.088,0,0,0,2.093-2.093V4.343A2.088,2.088,0,0,0,39.764,2.25Z" transform="translate(-646.941 407.679)" fill="#86b1b8"/>
    <text id="Try_to_Be_More_Active" data-name="Try to Be More Active" transform="translate(-669 506)" fill="#86b1b8" font-size="10" font-family="MalgunGothic, Malgun Gothic"><tspan x="0" y="11">Try to Be More Active</tspan></text>
    <path id="Icon_awesome-sad-tear" data-name="Icon awesome-sad-tear" d="M9.567.563a9.567,9.567,0,1,0,9.567,9.567A9.566,9.566,0,0,0,9.567.563Zm3.086,6.481a1.234,1.234,0,1,1-1.234,1.234A1.233,1.233,0,0,1,12.654,7.044ZM5.864,16.3a1.832,1.832,0,0,1-1.852-1.813c0-.772,1.1-2.33,1.6-3a.307.307,0,0,1,.494,0c.505.671,1.6,2.23,1.6,3A1.832,1.832,0,0,1,5.864,16.3Zm.617-6.79A1.234,1.234,0,1,1,7.716,8.278,1.233,1.233,0,0,1,6.481,9.513Zm6.566,5.949a4.526,4.526,0,0,0-3.48-1.628.617.617,0,0,1,0-1.234,5.74,5.74,0,0,1,4.425,2.075A.615.615,0,0,1,13.047,15.461Z" transform="translate(-599.706 435.99)" fill="#86b1b8" stroke="#fff" stroke-width="1"/>
  </g>
</svg>
