<svg xmlns="http://www.w3.org/2000/svg" xmlns:xlink="http://www.w3.org/1999/xlink" width="128" height="150" viewBox="0 0 128 150">
  <defs>
    <filter id="Ellipse_10" x="0" y="0" width="128" height="128" filterUnits="userSpaceOnUse">
      <feOffset dy="3" input="SourceAlpha"/>
      <feGaussianBlur stdDeviation="2" result="blur"/>
      <feFlood flood-opacity="0.161"/>
      <feComposite operator="in" in2="blur"/>
      <feComposite in="SourceGraphic"/>
    </filter>
  </defs>
  <g id="Group_36" data-name="Group 36" transform="translate(266 -370)">
    <g transform="matrix(1, 0, 0, 1, -266, 370)" filter="url(#Ellipse_10)">
      <circle id="Ellipse_10-2" data-name="Ellipse 10" cx="58" cy="58" r="58" transform="translate(6 3)" fill="#fff"/>
    </g>
    <path id="Icon_awesome-dumbbell" data-name="Icon awesome-dumbbell" d="M9.069,7.831H4.883A2.088,2.088,0,0,0,2.79,9.924v9.069H.7a.7.7,0,0,0-.7.7v4.186a.7.7,0,0,0,.7.7H2.79v9.069a2.088,2.088,0,0,0,2.093,2.093H9.069a2.088,2.088,0,0,0,2.093-2.093V9.924A2.088,2.088,0,0,0,9.069,7.831ZM55.112,18.993H53.019V9.924a2.088,2.088,0,0,0-2.093-2.093H46.74a2.088,2.088,0,0,0-2.093,2.093V33.643a2.088,2.088,0,0,0,2.093,2.093h4.186a2.088,2.088,0,0,0,2.093-2.093V24.574h2.093a.7.7,0,0,0,.7-.7V19.69A.7.7,0,0,0,55.112,18.993ZM39.764,2.25H35.579a2.088,2.088,0,0,0-2.093,2.093v14.65H22.324V4.343A2.088,2.088,0,0,0,20.231,2.25H16.045a2.088,2.088,0,0,0-2.093,2.093V39.224a2.088,2.088,0,0,0,2.093,2.093h4.186a2.088,2.088,0,0,0,2.093-2.093V24.574H33.486v14.65a2.088,2.088,0,0,0,2.093,2.093h4.186a2.088,2.088,0,0,0,2.093-2.093V4.343A2.088,2.088,0,0,0,39.764,2.25Z" transform="translate(-229.941 407.679)" fill="#86b1b8"/>
    <path id="Icon_ionic-ios-happy" data-name="Icon ionic-ios-happy" d="M12.944,3.375a9.569,9.569,0,1,0,9.569,9.569A9.567,9.567,0,0,0,12.944,3.375Zm3.312,6.993a1.1,1.1,0,1,1-1.1,1.1A1.1,1.1,0,0,1,16.256,10.368Zm-6.625,0a1.1,1.1,0,1,1-1.1,1.1A1.1,1.1,0,0,1,9.632,10.368Zm3.312,7.775A4.517,4.517,0,0,1,8.61,14.89a.37.37,0,0,1,.354-.474h7.954a.37.37,0,0,1,.354.474A4.507,4.507,0,0,1,12.944,18.142Z" transform="translate(-187.197 435.754)" fill="#86b1b8" stroke="#fafbfc" stroke-width="1"/>
    <text id="Nearly_Optimal" data-name="Nearly Optimal" transform="translate(-236 506)" fill="#86b1b8" font-size="10" font-family="MalgunGothic, Malgun Gothic"><tspan x="0" y="11">Nearly Optimal</tspan></text>
  </g>
</svg>
