<svg xmlns="http://www.w3.org/2000/svg" xmlns:xlink="http://www.w3.org/1999/xlink" width="128" height="151" viewBox="0 0 128 151">
  <defs>
    <filter id="Ellipse_9" x="0" y="0" width="128" height="128" filterUnits="userSpaceOnUse">
      <feOffset dy="3" input="SourceAlpha"/>
      <feGaussianBlur stdDeviation="2" result="blur"/>
      <feFlood flood-opacity="0.161"/>
      <feComposite operator="in" in2="blur"/>
      <feComposite in="SourceGraphic"/>
    </filter>
  </defs>
  <g id="Group_35" data-name="Group 35" transform="translate(61 -370)">
    <g transform="matrix(1, 0, 0, 1, -61, 370)" filter="url(#Ellipse_9)">
      <circle id="Ellipse_9-2" data-name="Ellipse 9" cx="58" cy="58" r="58" transform="translate(6 3)" fill="#fff"/>
    </g>
    <path id="Icon_ionic-md-trophy" data-name="Icon ionic-md-trophy" d="M44.046,10.488c.106-3.369.024-6.988.012-7.113H11.8c0,.125-.095,3.744.012,7.113H3.375c0,8.486,1.17,12.766,2.483,15.811a21.845,21.845,0,0,0,6.94,8.773c3.559,2.908,11.291,6.689,12.331,7.188v3.532c-.544,1.248-2.778,3.519-9.848,3.519H12.833V55.3H43.1V49.31H40.061c-7.177,0-8.867-2.383-9.257-3.519V42.259c1.1-.574,9.565-5.029,12.343-7.175a25.5,25.5,0,0,0,6.94-8.773,46.528,46.528,0,0,0,2.471-15.823ZM10.658,23.828A21.488,21.488,0,0,1,8.8,16.1h3.393c.083.749.166,1.41.272,2.034A57.712,57.712,0,0,0,15.505,30.18,17.756,17.756,0,0,1,10.658,23.828Zm34.617,0a17.872,17.872,0,0,1-4.918,6.4,56.9,56.9,0,0,0,3.05-12.092c.095-.624.189-1.285.272-2.034h3.464A21.487,21.487,0,0,1,45.275,23.828Z" transform="translate(-25.938 400.803)" fill="#86b1b8"/>
    <text id="Ready_for_Surgery" data-name="Ready for Surgery" transform="translate(-38 506)" fill="#86b1b8" font-size="10" font-family="MalgunGothic, Malgun Gothic"><tspan x="0" y="11">Ready for Surgery</tspan></text>
    <path id="Icon_awesome-dumbbell" data-name="Icon awesome-dumbbell" d="M4.079,4.76H2.2a.939.939,0,0,0-.941.941V9.781H.314A.315.315,0,0,0,0,10.1v1.883a.315.315,0,0,0,.314.314h.941v4.079a.939.939,0,0,0,.941.941H4.079a.939.939,0,0,0,.941-.941V5.7A.939.939,0,0,0,4.079,4.76ZM24.791,9.781h-.941V5.7a.939.939,0,0,0-.941-.941H21.025a.939.939,0,0,0-.941.941V16.371a.939.939,0,0,0,.941.941h1.883a.939.939,0,0,0,.941-.941V12.292h.941a.315.315,0,0,0,.314-.314V10.1A.315.315,0,0,0,24.791,9.781Zm-6.9-7.531H16a.939.939,0,0,0-.941.941v6.59H10.042V3.191A.939.939,0,0,0,9.1,2.25H7.217a.939.939,0,0,0-.941.941v15.69a.939.939,0,0,0,.941.941H9.1a.939.939,0,0,0,.941-.941v-6.59h5.021v6.59a.939.939,0,0,0,.941.941h1.883a.939.939,0,0,0,.941-.941V3.191A.939.939,0,0,0,17.887,2.25Z" transform="translate(8.47 444.512)" fill="#86b1b8" stroke="#fcfdfd" stroke-width="1"/>
  </g>
</svg>
