<svg xmlns="http://www.w3.org/2000/svg" xmlns:xlink="http://www.w3.org/1999/xlink" width="128" height="153" viewBox="0 0 128 153">
  <defs>
    <filter id="Ellipse_20" x="0" y="0" width="128" height="128" filterUnits="userSpaceOnUse">
      <feOffset dy="3" input="SourceAlpha"/>
      <feGaussianBlur stdDeviation="2" result="blur"/>
      <feFlood flood-opacity="0.161"/>
      <feComposite operator="in" in2="blur"/>
      <feComposite in="SourceGraphic"/>
    </filter>
  </defs>
  <g id="Group_34" data-name="Group 34" transform="translate(683 -180)">
    <g transform="matrix(1, 0, 0, 1, -683, 180)" filter="url(#Ellipse_20)">
      <circle id="Ellipse_20-2" data-name="Ellipse 20" cx="58" cy="58" r="58" transform="translate(6 3)" fill="#fff"/>
    </g>
    <path id="Icon_awesome-apple-alt" data-name="Icon awesome-apple-alt" d="M35.586,13.086a9.937,9.937,0,0,1,6.483,4.261,19.014,19.014,0,0,1,3.039,7.913,25.234,25.234,0,0,1-.1,8.724,27.415,27.415,0,0,1-4.862,12.072Q35.787,51.941,29.2,51.94a7.691,7.691,0,0,1-3.546-1.014,5.725,5.725,0,0,0-5.877,0,7.691,7.691,0,0,1-3.546,1.014q-6.585,0-10.941-5.884A27.415,27.415,0,0,1,.431,33.984a25.234,25.234,0,0,1-.1-8.724,19.014,19.014,0,0,1,3.039-7.913,9.937,9.937,0,0,1,6.483-4.261,16.921,16.921,0,0,1,6.686.71,28.082,28.082,0,0,1,6.18,2.435A28.082,28.082,0,0,1,28.9,13.8a16.932,16.932,0,0,1,6.688-.71ZM30.014,8.927a8.575,8.575,0,0,1-3.749,1.927,11.834,11.834,0,0,1-3.546.507l-1.519-.1a13.02,13.02,0,0,1,0-3.246,9.051,9.051,0,0,1,2.33-5.579A8.575,8.575,0,0,1,27.278.507,11.834,11.834,0,0,1,30.824,0l1.519.1.1,1.522a11.9,11.9,0,0,1-.506,3.551,8.576,8.576,0,0,1-1.925,3.753Z" transform="translate(-642.563 209.793)" fill="#86b1b8"/>
    <path id="Icon_awesome-sad-tear" data-name="Icon awesome-sad-tear" d="M9.265.563A9.265,9.265,0,1,0,18.53,9.828,9.264,9.264,0,0,0,9.265.563Zm2.989,6.276a1.2,1.2,0,1,1-1.2,1.2A1.194,1.194,0,0,1,12.254,6.839ZM5.679,15.805a1.774,1.774,0,0,1-1.793-1.756c0-.747,1.065-2.257,1.554-2.907a.3.3,0,0,1,.478,0c.489.65,1.554,2.159,1.554,2.907A1.774,1.774,0,0,1,5.679,15.805Zm.6-6.575a1.2,1.2,0,1,1,1.2-1.2A1.194,1.194,0,0,1,6.276,9.23Zm6.359,5.761a4.383,4.383,0,0,0-3.37-1.577.6.6,0,0,1,0-1.2,5.558,5.558,0,0,1,4.285,2.01A.6.6,0,0,1,12.635,14.991Z" transform="translate(-611.791 252.724)" fill="#86b1b8"/>
    <text id="Try_and_Eat_Healthier" data-name="Try and Eat Healthier" transform="translate(-670 316)" fill="#86b1b8" font-size="10" font-family="MalgunGothic, Malgun Gothic"><tspan x="0" y="11">Try and Eat Healthier</tspan></text>
  </g>
</svg>
