<svg xmlns="http://www.w3.org/2000/svg" xmlns:xlink="http://www.w3.org/1999/xlink" width="128" height="153" viewBox="0 0 128 153">
  <defs>
    <filter id="Ellipse_18" x="0" y="0" width="128" height="128" filterUnits="userSpaceOnUse">
      <feOffset dy="3" input="SourceAlpha"/>
      <feGaussianBlur stdDeviation="2" result="blur"/>
      <feFlood flood-opacity="0.161"/>
      <feComposite operator="in" in2="blur"/>
      <feComposite in="SourceGraphic"/>
    </filter>
  </defs>
  <g id="Group_32" data-name="Group 32" transform="translate(266 -180)">
    <g transform="matrix(1, 0, 0, 1, -266, 180)" filter="url(#Ellipse_18)">
      <circle id="Ellipse_18-2" data-name="Ellipse 18" cx="58" cy="58" r="58" transform="translate(6 3)" fill="#fff"/>
    </g>
    <path id="Icon_ionic-ios-happy" data-name="Icon ionic-ios-happy" d="M13.32,3.375a9.945,9.945,0,1,0,9.945,9.945A9.944,9.944,0,0,0,13.32,3.375Zm3.443,7.268a1.148,1.148,0,1,1-1.148,1.148A1.145,1.145,0,0,1,16.763,10.643Zm-6.885,0A1.148,1.148,0,1,1,8.73,11.79,1.145,1.145,0,0,1,9.878,10.643Zm3.443,8.08a4.694,4.694,0,0,1-4.5-3.38.384.384,0,0,1,.368-.492h8.267a.385.385,0,0,1,.368.492A4.684,4.684,0,0,1,13.32,18.723Z" transform="translate(-197.841 249.7)" fill="#2d55db" stroke="#fafbfc" stroke-width="1"/>
    <path id="Icon_awesome-apple-alt" data-name="Icon awesome-apple-alt" d="M35.589,13.085a9.938,9.938,0,0,1,6.484,4.26,19.011,19.011,0,0,1,3.039,7.912,25.228,25.228,0,0,1-.1,8.724,27.41,27.41,0,0,1-4.863,12.071q-4.358,5.884-10.942,5.883a7.693,7.693,0,0,1-3.546-1.014,5.726,5.726,0,0,0-5.877,0,7.693,7.693,0,0,1-3.546,1.014q-6.585,0-10.942-5.883A27.41,27.41,0,0,1,.432,33.981a25.228,25.228,0,0,1-.1-8.724,19.011,19.011,0,0,1,3.039-7.912,9.938,9.938,0,0,1,6.484-4.26,16.925,16.925,0,0,1,6.687.71A28.088,28.088,0,0,1,22.72,16.23,28.088,28.088,0,0,1,28.9,13.8a16.936,16.936,0,0,1,6.689-.71ZM30.017,8.926a8.577,8.577,0,0,1-3.749,1.927,11.837,11.837,0,0,1-3.546.507l-1.52-.1a13.016,13.016,0,0,1,0-3.246,9.049,9.049,0,0,1,2.33-5.579A8.577,8.577,0,0,1,27.281.507,11.837,11.837,0,0,1,30.827,0l1.52.1.1,1.522a11.9,11.9,0,0,1-.506,3.55,8.574,8.574,0,0,1-1.925,3.753Z" transform="translate(-225.734 211.453)" fill="#2d55db"/>
    <text id="Keeping_Eating_Healthy" data-name="Keeping Eating Healthy" transform="translate(-255 315)" fill="#2d55db" font-size="10" font-family="MalgunGothic, Malgun Gothic"><tspan x="0" y="11">Keeping Eating Healthy</tspan></text>
  </g>
</svg>
