<svg xmlns="http://www.w3.org/2000/svg" xmlns:xlink="http://www.w3.org/1999/xlink" width="128" height="151" viewBox="0 0 128 151">
  <defs>
    <filter id="Ellipse_11" x="0" y="0" width="128" height="128" filterUnits="userSpaceOnUse">
      <feOffset dy="3" input="SourceAlpha"/>
      <feGaussianBlur stdDeviation="2" result="blur"/>
      <feFlood flood-opacity="0.161"/>
      <feComposite operator="in" in2="blur"/>
      <feComposite in="SourceGraphic"/>
    </filter>
  </defs>
  <g id="Group_31" data-name="Group 31" transform="translate(61 -180)">
    <g transform="matrix(1, 0, 0, 1, -61, 180)" filter="url(#Ellipse_11)">
      <circle id="Ellipse_11-2" data-name="Ellipse 11" cx="58" cy="58" r="58" transform="translate(6 3)" fill="#fff"/>
    </g>
    <path id="Icon_ionic-md-trophy" data-name="Icon ionic-md-trophy" d="M44.471,10.562c.108-3.4.024-7.061.012-7.187H11.893c0,.126-.1,3.783.012,7.187H3.375c0,8.574,1.183,12.9,2.509,15.976A22.073,22.073,0,0,0,12.9,35.4c3.6,2.938,11.409,6.759,12.46,7.263v3.568c-.55,1.261-2.807,3.556-9.951,3.556H12.932v6.052H43.515V49.79h-3.07c-7.252,0-8.96-2.408-9.354-3.556V42.666c1.111-.58,9.665-5.082,12.472-7.25a25.769,25.769,0,0,0,7.013-8.864,47.015,47.015,0,0,0,2.5-15.989ZM10.734,24.042a21.712,21.712,0,0,1-1.876-7.805h3.429c.084.757.167,1.425.275,2.055a58.316,58.316,0,0,0,3.07,12.168A17.941,17.941,0,0,1,10.734,24.042Zm34.979,0a18.059,18.059,0,0,1-4.97,6.469,57.5,57.5,0,0,0,3.082-12.218c.1-.63.191-1.3.275-2.055h3.5A21.712,21.712,0,0,1,45.713,24.042Z" transform="translate(-26.733 211.649)" fill="#86b1b8"/>
    <text id="Optimal_Diet" data-name="Optimal Diet" transform="translate(-27 316)" fill="#86b1b8" font-size="10" font-family="MalgunGothic, Malgun Gothic"><tspan x="0" y="11">Optimal Diet</tspan></text>
    <path id="Icon_awesome-apple-alt" data-name="Icon awesome-apple-alt" d="M14.986,5.51A4.185,4.185,0,0,1,17.717,7.3,8.005,8.005,0,0,1,19,10.636a10.623,10.623,0,0,1-.043,3.673,11.542,11.542,0,0,1-2.048,5.083A5.533,5.533,0,0,1,12.3,21.87a3.239,3.239,0,0,1-1.493-.427,2.411,2.411,0,0,0-2.475,0,3.239,3.239,0,0,1-1.493.427,5.533,5.533,0,0,1-4.608-2.477A11.542,11.542,0,0,1,.181,14.31a10.623,10.623,0,0,1-.043-3.673A8.005,8.005,0,0,1,1.418,7.3,4.185,4.185,0,0,1,4.149,5.51a7.127,7.127,0,0,1,2.816.3,11.828,11.828,0,0,1,2.6,1.025,11.828,11.828,0,0,1,2.6-1.025,7.132,7.132,0,0,1,2.817-.3ZM12.639,3.759a3.612,3.612,0,0,1-1.579.812,4.985,4.985,0,0,1-1.493.214l-.64-.043a5.481,5.481,0,0,1,0-1.367,3.811,3.811,0,0,1,.981-2.349A3.612,3.612,0,0,1,11.487.214,4.985,4.985,0,0,1,12.981,0l.64.043.043.641a5.01,5.01,0,0,1-.213,1.5,3.611,3.611,0,0,1-.811,1.58Z" transform="translate(10.601 254.354)" fill="#86b1b8" stroke="#fff" stroke-width="1"/>
  </g>
</svg>
